<?xml version="1.0" ?><svg xmlns="http://www.w3.org/2000/svg" xmlns:xlink="http://www.w3.org/1999/xlink" version="1.1" id="Layer_1" viewBox="0 0 100 100" style="enable-background:new 0 0 100 100;" xml:space="preserve"><style type="text/css">
	.st0{fill:#DCFFD2;}
	.st1{fill:#333333;}
</style><g><g id="design"><path class="st0" d="M24.7,16h39c2.3,0,4.2,2.1,4.2,4.7v14.9c0,2.6-1.9,4.7-4.2,4.7h-39c-2.3,0-4.2-2.1-4.2-4.7V20.7    C20.5,18.1,22.4,16,24.7,16z"/><path class="st1" d="M71.4,84c-0.8-0.1-1.6-0.4-2.2-1.1l-5.3-5.3c-1.5-1.5-1.5-2.5-0.3-4.2c3.8-5,2.8-12.2-2.2-16    c-0.3-0.3-0.7-0.5-1.1-0.7c-0.2-0.1-0.3-0.2-0.5-0.3l-0.7-0.4l0.1,0.5c0.1,0.5,0.3,1,0.4,1.5c0.3,1.1,0.6,2.3,0.8,3.4l0.1,0.4    c0.4,1.7,0.5,3.5,0.5,5.3c-0.4,3.4-3.3,6-6.7,5.8H54c-3.5-0.2-6.2-3.1-6.3-6.6c0.1-3.1,0.7-6.1,1.8-9L50,56l-0.5,0.3    c-5.7,2.8-8,9.6-5.3,15.3c0.3,0.7,0.7,1.4,1.2,2c1.2,1.6,1.1,2.7-0.3,4.1l-1.2,1.2l-4.1,4.1c-0.5,0.6-1.3,1-2.1,1    c-0.9-0.1-1.7-0.5-2.2-1.2c-8.9-10.6-7.6-26.4,2.9-35.3c3.2-2.7,7.1-4.6,11.2-5.4c1.6-0.3,3.2-0.5,4.9-0.5    c12.6,0,23.2,9.4,24.8,21.9c1,7-1.1,14.1-5.7,19.4C73.1,83.5,72.2,83.9,71.4,84z M65.2,57.8l0.1,0.2c4,5.1,4,12.2-0.1,17.2    l-0.1,0.2l6.2,6.3l0.1-0.1c7.6-8.5,7.6-21.3,0.1-29.8l-0.1-0.2L65.2,57.8z M37.5,51.7c-7.5,8.1-7.5,21.8,0,29.8l0.2,0.2l6.2-6.2    l-0.1-0.2c-4-5.8-4-11.6,0-17.4l0.1-0.2l-6.2-6.2L37.5,51.7z M54.2,51.3c-0.1,0.1-0.1,0.2-0.1,0.3c-0.3,0.8-0.5,1.5-0.8,2.2    c-0.6,1.7-1.2,3.5-1.8,5.3c-0.6,2.2-1.1,4.5-1.4,6.8c-0.2,1.3,0.2,2.6,1.1,3.5c0.8,0.9,2,1.5,3.3,1.5l0,0c2.5,0,4.5-2.1,4.5-4.5    c0-0.2,0-0.4-0.1-0.6c-0.6-4.4-1.8-8.7-3.5-12.8l-0.9-2.4L54.2,51.3z M54.5,48.6c1.1-0.1,2.1,0.6,2.4,1.7c0.2,0.4,0.3,0.8,0.5,1.3    c0.2,0.4,0.3,0.7,0.4,1.1c0.1,0.3,0.3,0.5,0.5,0.7c1.3,0.6,2.6,1.2,3.9,1.8l1.3,0.6l6.1-6.1l-0.2-0.2c-4.1-3.7-9.5-5.7-15-5.6    c-5.5-0.1-10.8,1.9-14.8,5.6l-0.2,0.2l6.1,6.1l1.4-0.6c1.2-0.6,2.4-1.1,3.6-1.7c0.3-0.2,0.5-0.4,0.6-0.7c0.2-0.4,0.3-0.8,0.5-1.2    c0.2-0.4,0.3-0.8,0.4-1.2C52.5,49.2,53.5,48.5,54.5,48.6L54.5,48.6z"/></g><path class="st1" d="M61.6,22c0-0.1,0-0.2-0.1-0.3c0-0.1-0.1-0.2-0.1-0.2c0-0.1-0.1-0.1-0.1-0.2c0,0,0,0,0,0   c-0.1-0.1-0.2-0.1-0.3-0.2c0,0-0.1-0.1-0.1-0.1c0,0-0.1,0-0.1,0c-0.1,0-0.2-0.1-0.3-0.1c0,0,0,0,0,0h-4.2c-0.7,0-1.2,0.5-1.2,1.2   s0.5,1.2,1.2,1.2h1.2l-6.4,6.1L41.7,26c-0.4-0.2-0.9-0.1-1.3,0.2l-7.6,7l-4.5-1.5c-0.6-0.2-1.3,0.1-1.5,0.8   c-0.2,0.6,0.1,1.3,0.8,1.5l5.1,1.7c0.1,0,0.3,0.1,0.4,0.1c0.3,0,0.6-0.1,0.8-0.3l7.5-7l9.3,3.5c0.4,0.2,0.9,0.1,1.3-0.3l7.1-6.8   v1.4c0,0.7,0.5,1.2,1.2,1.2s1.2-0.5,1.2-1.2v-4.2C61.6,22.1,61.6,22.1,61.6,22z"/></g></svg>